<svg width="878" height="877" viewBox="0 0 878 877" fill="none" xmlns="http://www.w3.org/2000/svg">
<path d="M790.17 236.747C826.544 294.937 844.71 364.054 844.71 436.813C844.71 662.332 662.838 844.245 440.98 844.245C219.122 844.245 33.6526 662.347 33.6526 436.813C33.6526 211.28 215.524 33.0245 441.024 33.0245C481.888 33.0245 522.723 38.4807 561.233 51.675C561.145 52.7283 561.072 53.7815 561.072 54.8347C561.072 83.9296 582.879 105.74 611.97 105.74C637.419 105.74 659.269 83.9296 659.269 54.8347C659.269 29.3821 637.463 7.528 611.97 7.528C596.964 7.528 583.888 13.3938 574.747 22.507C532.903 8.46418 488.324 0.243286 441.024 0.243286C197.33 0.28717 0.920166 196.711 0.920166 436.813C0.920166 676.916 197.315 876.982 441.024 876.982C684.733 876.982 877.486 680.558 877.486 436.813C877.486 360.412 855.679 284.054 819.305 222.178L790.214 236.747H790.17Z" fill="white"/>
<path d="M491.936 567.777H277.332V647.821H495.534C579.164 647.821 626.464 596.916 626.464 513.23C626.464 429.543 564.641 393.208 510.101 393.208H393.739C364.648 393.208 350.081 378.638 350.081 356.828C350.081 331.375 364.648 313.164 393.739 313.164H608.343V233.12H390.141C306.511 233.12 259.211 280.426 259.211 364.069C259.211 447.711 324.676 480.449 375.574 480.449H491.936C524.669 480.449 546.476 498.616 546.476 520.471C546.476 545.923 524.669 567.777 491.936 567.777Z" fill="white"/>
</svg>