<svg width="20" height="16" viewBox="0 0 20 16" fill="none" xmlns="http://www.w3.org/2000/svg">
<path d="M16.9312 1.27684C15.6562 0.70184 14.2896 0.27684 12.8604 0.0351733C12.8477 0.0327299 12.8345 0.0343045 12.8227 0.0396794C12.8109 0.0450543 12.8011 0.0539636 12.7946 0.0651733C12.6196 0.372673 12.4246 0.773507 12.2879 1.09017C10.7721 0.863704 9.23115 0.863704 7.7154 1.09017C7.56318 0.739224 7.39152 0.397027 7.20123 0.0651733C7.19478 0.0538256 7.18503 0.0447148 7.17326 0.0390568C7.1615 0.0333987 7.14829 0.0314625 7.1354 0.0335066C5.70707 0.275173 4.3404 0.700173 3.06457 1.27601C3.05359 1.28061 3.04429 1.28846 3.0379 1.29851C0.444567 5.11101 -0.266266 8.82934 0.0829005 12.501C0.0838721 12.51 0.0866635 12.5187 0.0911046 12.5266C0.0955458 12.5345 0.101544 12.5414 0.108734 12.5468C1.62239 13.6489 3.31068 14.4884 5.1029 15.0302C5.11539 15.034 5.12876 15.034 5.14124 15.0301C5.15373 15.0263 5.16476 15.0187 5.1729 15.0085C5.5579 14.4918 5.90123 13.946 6.19457 13.3727C6.21207 13.3393 6.1954 13.2993 6.1604 13.286C5.62207 13.0833 5.10047 12.8386 4.6004 12.5543C4.59141 12.5492 4.58384 12.5419 4.57836 12.5332C4.57289 12.5244 4.56967 12.5144 4.56901 12.5041C4.56835 12.4937 4.57026 12.4834 4.57458 12.474C4.57889 12.4646 4.58548 12.4564 4.59373 12.4502C4.69873 12.3727 4.80373 12.2918 4.90373 12.211C4.91273 12.2037 4.92358 12.1991 4.93505 12.1976C4.94653 12.1962 4.95819 12.1979 4.96873 12.2027C8.24123 13.6727 11.7854 13.6727 15.0196 12.2027C15.0301 12.1976 15.0419 12.1957 15.0536 12.197C15.0652 12.1983 15.0762 12.2029 15.0854 12.2102C15.1854 12.2918 15.2896 12.3727 15.3954 12.4502C15.4037 12.4563 15.4104 12.4644 15.4149 12.4737C15.4193 12.483 15.4214 12.4933 15.4209 12.5036C15.4204 12.5139 15.4174 12.524 15.412 12.5328C15.4067 12.5417 15.3993 12.5491 15.3904 12.5543C14.8921 12.841 14.3737 13.0835 13.8296 13.2852C13.8212 13.2882 13.8136 13.293 13.8072 13.2992C13.8009 13.3054 13.7959 13.3129 13.7927 13.3212C13.7894 13.3295 13.788 13.3383 13.7885 13.3472C13.789 13.3561 13.7913 13.3648 13.7954 13.3727C14.0954 13.9452 14.4387 14.4902 14.8162 15.0077C14.8241 15.0183 14.835 15.0262 14.8475 15.0304C14.8601 15.0346 14.8736 15.0348 14.8862 15.031C16.6815 14.4907 18.3726 13.6508 19.8879 12.5468C19.8953 12.5417 19.9015 12.535 19.9061 12.5272C19.9107 12.5195 19.9136 12.5108 19.9146 12.5018C20.3312 8.25684 19.2162 4.56851 16.9571 1.30017C16.9515 1.28955 16.9424 1.28127 16.9312 1.27684ZM6.68373 10.2652C5.69873 10.2652 4.88623 9.37434 4.88623 8.28184C4.88623 7.18851 5.6829 6.29851 6.68373 6.29851C7.69207 6.29851 8.49707 7.19601 8.48123 8.28184C8.48123 9.37517 7.68457 10.2652 6.68373 10.2652ZM13.3296 10.2652C12.3437 10.2652 11.5321 9.37434 11.5321 8.28184C11.5321 7.18851 12.3279 6.29851 13.3296 6.29851C14.3379 6.29851 15.1429 7.19601 15.1271 8.28184C15.1271 9.37517 14.3387 10.2652 13.3296 10.2652Z" fill="#A59AB2"/>
</svg>
