<svg width="21" height="21" viewBox="0 0 21 21" fill="none" xmlns="http://www.w3.org/2000/svg">
<path fill-rule="evenodd" clip-rule="evenodd" d="M10.2529 0.0327148C4.58819 0.0327148 0 4.6209 0 10.2857C0 14.8226 2.9349 18.6546 7.01045 20.0131C7.52309 20.1028 7.71534 19.7953 7.71534 19.5261C7.71534 19.2826 7.70252 18.4752 7.70252 17.6165C5.12647 18.0907 4.46003 16.9885 4.25497 16.4118C4.13962 16.117 3.63979 15.2071 3.20404 14.9636C2.84519 14.7713 2.33254 14.2971 3.19123 14.2843C3.99865 14.2715 4.57537 15.0276 4.76762 15.3352C5.69038 16.886 7.16424 16.4502 7.75378 16.1811C7.8435 15.5147 8.11264 15.0661 8.40741 14.8098C6.12613 14.5534 3.74232 13.6691 3.74232 9.74737C3.74232 8.63237 4.13962 7.7096 4.79325 6.9919C4.69072 6.73557 4.33187 5.68465 4.89578 4.27487C4.89578 4.27487 5.75446 4.00573 7.71534 5.32579C8.53557 5.0951 9.40707 4.97976 10.2786 4.97976C11.1501 4.97976 12.0216 5.0951 12.8418 5.32579C14.8027 3.99291 15.6614 4.27487 15.6614 4.27487C16.2253 5.68465 15.8664 6.73557 15.7639 6.9919C16.4175 7.7096 16.8148 8.61955 16.8148 9.74737C16.8148 13.6819 14.4182 14.5534 12.1369 14.8098C12.5086 15.1302 12.829 15.7453 12.829 16.7066C12.829 18.0779 12.8162 19.1801 12.8162 19.5261C12.8162 19.7953 13.0084 20.1157 13.5211 20.0131C15.5564 19.3259 17.3251 18.0178 18.578 16.2728C19.831 14.5278 20.5053 12.4339 20.5059 10.2857C20.5059 4.6209 15.9177 0.0327148 10.2529 0.0327148Z" fill="#A59AB2"/>
</svg>
