<svg width="20" height="21" viewBox="0 0 20 21" fill="none" xmlns="http://www.w3.org/2000/svg">
<path fill-rule="evenodd" clip-rule="evenodd" d="M2.47327e-07 1.93031C2.47327e-07 1.48716 0.176042 1.06216 0.489398 0.7488C0.802754 0.435443 1.22776 0.259402 1.67091 0.259402H18.3273C18.5469 0.259043 18.7644 0.302004 18.9674 0.385826C19.1704 0.469647 19.3548 0.592683 19.5102 0.747889C19.6656 0.903095 19.7888 1.08742 19.8729 1.29032C19.9569 1.49322 20.0001 1.7107 20 1.93031V18.5867C20.0002 18.8063 19.9572 19.0239 19.8732 19.2269C19.7893 19.4299 19.6662 19.6143 19.5109 19.7697C19.3556 19.925 19.1713 20.0483 18.9683 20.1323C18.7654 20.2163 18.5478 20.2595 18.3282 20.2594H1.67091C1.45141 20.2594 1.23405 20.2162 1.03127 20.1321C0.828487 20.0481 0.644247 19.9249 0.489077 19.7697C0.333906 19.6144 0.210847 19.4301 0.12693 19.2273C0.0430121 19.0245 -0.000119178 18.8071 2.47327e-07 18.5876V1.93031ZM7.91636 7.88486H10.6245V9.24486C11.0155 8.46304 12.0155 7.7594 13.5182 7.7594C16.3991 7.7594 17.0818 9.31667 17.0818 12.1739V17.4667H14.1664V12.8249C14.1664 11.1976 13.7755 10.2794 12.7827 10.2794C11.4055 10.2794 10.8327 11.2694 10.8327 12.8249V17.4667H7.91636V7.88486ZM2.91636 17.3421H5.83273V7.7594H2.91636V17.3412V17.3421ZM6.25 4.63395C6.2555 4.88365 6.21107 5.13193 6.11931 5.36423C6.02755 5.59653 5.89032 5.80816 5.71566 5.9867C5.54101 6.16525 5.33245 6.3071 5.10223 6.40395C4.87201 6.5008 4.62476 6.55069 4.375 6.55069C4.12524 6.55069 3.87799 6.5008 3.64777 6.40395C3.41755 6.3071 3.20899 6.16525 3.03433 5.9867C2.85968 5.80816 2.72245 5.59653 2.63069 5.36423C2.53893 5.13193 2.4945 4.88365 2.5 4.63395C2.51079 4.14381 2.71308 3.67739 3.06353 3.33457C3.41399 2.99175 3.88475 2.79978 4.375 2.79978C4.86525 2.79978 5.33601 2.99175 5.68647 3.33457C6.03692 3.67739 6.23921 4.14381 6.25 4.63395Z" fill="#A59AB2"/>
</svg>
