<svg width="20" height="21" viewBox="0 0 20 21" fill="none" xmlns="http://www.w3.org/2000/svg">
<path d="M18.8889 0.259399H1.11111C0.816426 0.259399 0.533811 0.376463 0.325437 0.584836C0.117063 0.79321 0 1.07583 0 1.37051V19.1483C0 19.443 0.117063 19.7256 0.325437 19.934C0.533811 20.1423 0.816426 20.2594 1.11111 20.2594H18.8889C19.1836 20.2594 19.4662 20.1423 19.6746 19.934C19.8829 19.7256 20 19.443 20 19.1483V1.37051C20 1.07583 19.8829 0.79321 19.6746 0.584836C19.4662 0.376463 19.1836 0.259399 18.8889 0.259399ZM16.6156 4.99829L15.5422 6.02607C15.4969 6.06064 15.4619 6.10702 15.4411 6.16012C15.4204 6.21322 15.4146 6.27101 15.4244 6.32718V13.8838C15.4146 13.94 15.4204 13.9978 15.4411 14.0509C15.4619 14.104 15.4969 14.1504 15.5422 14.185L16.5889 15.2138V15.4405H11.3211V15.2138L12.4067 14.1605C12.5144 14.0538 12.5144 14.0216 12.5144 13.8594V7.75051L9.49667 15.4127H9.08778L5.57556 7.75051V12.8861C5.56169 12.9928 5.57207 13.1013 5.60593 13.2034C5.63978 13.3056 5.69625 13.3988 5.77111 13.4761L7.18333 15.1883V15.4138H3.17889V15.1883L4.59111 13.4761C4.66544 13.3988 4.72064 13.3052 4.75228 13.2027C4.78393 13.1003 4.79114 12.9918 4.77333 12.8861V6.94829C4.78164 6.86701 4.77068 6.78491 4.74134 6.70866C4.71199 6.63241 4.6651 6.56414 4.60444 6.5094L3.34889 4.99829V4.77273H7.24445L10.2556 11.3761L12.9022 4.77273H16.6167L16.6156 4.99829Z" fill="#A59AB3"/>
</svg>
