<svg width="20" height="21" viewBox="0 0 20 21" fill="none" xmlns="http://www.w3.org/2000/svg">
<path fill-rule="evenodd" clip-rule="evenodd" d="M20 10.0327C20 15.5552 15.5225 20.0327 10 20.0327C4.4775 20.0327 0 15.5552 0 10.0327C0 4.51021 4.4775 0.0327148 10 0.0327148C15.5225 0.0327148 20 4.51021 20 10.0327ZM16.4067 9.24771C16.5683 9.47855 16.66 9.75105 16.67 10.0327C16.6744 10.3083 16.6006 10.5794 16.4573 10.8148C16.3139 11.0502 16.1068 11.2401 15.86 11.3627C15.8717 11.5094 15.8717 11.656 15.86 11.8027C15.86 14.0427 13.25 15.8627 10.03 15.8627C6.81 15.8627 4.2 14.0427 4.2 11.8027C4.18874 11.6563 4.18874 11.5092 4.2 11.3627C4.00931 11.2734 3.84021 11.144 3.70432 10.9831C3.56844 10.8223 3.46899 10.6339 3.41281 10.431C3.35663 10.2281 3.34506 10.0154 3.37889 9.80763C3.41272 9.59981 3.49115 9.40179 3.60878 9.22716C3.72641 9.05254 3.88046 8.90546 4.06034 8.79603C4.24022 8.6866 4.44166 8.61742 4.65082 8.59324C4.85997 8.56907 5.07189 8.59047 5.27199 8.65597C5.47209 8.72148 5.65563 8.82953 5.81 8.97271C6.96227 8.19124 8.31788 7.7637 9.71 7.74271L10.45 4.27271C10.4583 4.23254 10.4745 4.19442 10.4977 4.16056C10.5208 4.12669 10.5505 4.09776 10.5849 4.07544C10.6193 4.05311 10.6578 4.03784 10.6982 4.03051C10.7385 4.02317 10.7799 4.02392 10.82 4.03271L13.27 4.52271C13.3896 4.31715 13.5786 4.16097 13.8031 4.08219C14.0275 4.00342 14.2726 4.00722 14.4945 4.0929C14.7164 4.17859 14.9005 4.34055 15.0137 4.54972C15.1269 4.75889 15.1619 5.00157 15.1123 5.23419C15.0627 5.46681 14.9319 5.67415 14.7432 5.81898C14.5545 5.96381 14.3204 6.03665 14.0829 6.02443C13.8453 6.01221 13.6199 5.91573 13.4471 5.7523C13.2743 5.58887 13.1654 5.3692 13.14 5.13271L11 4.68271L10.35 7.80271C11.7252 7.83221 13.0624 8.25943 14.2 9.03271C14.3519 8.88671 14.5335 8.77531 14.7325 8.70619C14.9315 8.63706 15.1431 8.61185 15.3528 8.63228C15.5625 8.65271 15.7653 8.71829 15.9472 8.82453C16.1291 8.93077 16.2858 9.07514 16.4067 9.24771V9.24771ZM6.83833 10.4769C6.76534 10.5861 6.71457 10.7086 6.68893 10.8375C6.66329 10.9663 6.66328 11.0989 6.68889 11.2278C6.74062 11.488 6.89359 11.717 7.11417 11.8644C7.33474 12.0118 7.60484 12.0656 7.86504 12.0138C7.99388 11.9882 8.11642 11.9375 8.22565 11.8645C8.33488 11.7915 8.42867 11.6978 8.50167 11.5885C8.64908 11.368 8.70284 11.0979 8.65111 10.8377C8.59938 10.5775 8.44641 10.3485 8.22583 10.201C8.00526 10.0536 7.73516 9.99987 7.47496 10.0516C7.21475 10.1033 6.98575 10.2563 6.83833 10.4769ZM10.01 14.5527C10.8975 14.5894 11.7708 14.3577 12.48 13.8227C12.533 13.771 12.5634 13.7003 12.5643 13.6262C12.5652 13.5522 12.5367 13.4808 12.485 13.4277C12.4594 13.4014 12.4289 13.3805 12.3952 13.366C12.3614 13.3516 12.3252 13.3439 12.2885 13.3434C12.2145 13.3425 12.143 13.371 12.09 13.4227C11.4831 13.8581 10.7458 14.0733 10 14.0327C9.25512 14.066 8.52123 13.8437 7.92 13.4027C7.86819 13.3602 7.80241 13.3385 7.73546 13.3417C7.66852 13.345 7.60519 13.3731 7.55779 13.4205C7.51039 13.4679 7.48232 13.5312 7.47903 13.5982C7.47575 13.6651 7.49748 13.7309 7.54 13.7827C8.24948 14.3174 9.12238 14.5895 10.01 14.5527V14.5527ZM11.7442 11.9044C11.9092 12.0144 12.0925 12.1127 12.29 12.1127C12.4256 12.1143 12.5602 12.0883 12.6854 12.0362C12.8106 11.9841 12.924 11.907 13.0185 11.8097C13.1129 11.7124 13.1866 11.5969 13.235 11.4702C13.2835 11.3435 13.3056 11.2082 13.3 11.0727C13.2999 10.9 13.2551 10.7302 13.1699 10.5799C13.0848 10.4297 12.9621 10.304 12.8139 10.2153C12.6658 10.1265 12.4971 10.0776 12.3244 10.0734C12.1517 10.0692 11.9809 10.1097 11.8286 10.1912C11.6762 10.2726 11.5476 10.3921 11.4552 10.538C11.3628 10.684 11.3097 10.8514 11.3012 11.0239C11.2927 11.1964 11.329 11.3682 11.4067 11.5225C11.4843 11.6768 11.6006 11.8084 11.7442 11.9044V11.9044Z" fill="#A59AB2"/>
</svg>
