<svg width="20" height="21" viewBox="0 0 20 21" fill="none" xmlns="http://www.w3.org/2000/svg">
<path fill-rule="evenodd" clip-rule="evenodd" d="M20 10.1001C20 15.6229 15.5228 20.1001 10 20.1001C4.47715 20.1001 0 15.6229 0 10.1001C0 4.57725 4.47715 0.100098 10 0.100098C15.5228 0.100098 20 4.57725 20 10.1001ZM9.9665 17.7668C12.01 17.7668 13.6665 16.1102 13.6665 14.0668V11.6668C13.6665 9.62332 12.01 7.96677 9.9665 7.96677C9.67968 7.96677 9.40049 7.99941 9.13242 8.06117C8.97145 8.09826 8.92627 8.29693 9.04572 8.41102L9.06575 8.43016L11.1973 10.466C11.5278 10.7871 11.7332 11.2363 11.7332 11.7334V14.0001C11.7332 14.9758 10.9422 15.7668 9.9665 15.7668C8.9908 15.7668 8.19984 14.9758 8.19984 14.0001V13.9334C8.19984 13.3996 7.76705 12.9668 7.23317 12.9668C6.69929 12.9668 6.2665 13.3996 6.2665 13.9334V14.0668C6.2665 16.1102 7.92305 17.7668 9.9665 17.7668ZM6.26611 5.93269C6.26611 3.88924 7.92266 2.23269 9.96611 2.23269C12.0096 2.23269 13.6661 3.88924 13.6661 5.93269V6.06677C13.6661 6.60065 13.2333 7.03344 12.6994 7.03344C12.1656 7.03344 11.7328 6.60065 11.7328 6.06677V5.99936C11.7328 5.02365 10.9418 4.23269 9.96611 4.23269C8.99041 4.23269 8.19945 5.02365 8.19945 5.99936V8.26602C8.19945 8.7632 8.40482 9.2124 8.73535 9.53343L10.8669 11.5693L10.8869 11.5884C11.0063 11.7025 10.9612 11.9012 10.8002 11.9383C10.5321 12.0001 10.2529 12.0327 9.96611 12.0327C7.92266 12.0327 6.26611 10.3761 6.26611 8.33269V5.93269Z" fill="#A59AB2"/>
</svg>
