<svg width="20" height="20" viewBox="0 0 20 20" fill="none" xmlns="http://www.w3.org/2000/svg">
<path d="M19.7024 4.11415C19.0066 4.42248 18.2591 4.63082 17.4733 4.72498C18.2841 4.23981 18.8907 3.4762 19.1799 2.57665C18.4181 3.02914 17.5844 3.34765 16.7149 3.51832C16.1302 2.89404 15.3558 2.48025 14.5119 2.34121C13.6679 2.20217 12.8017 2.34564 12.0476 2.74936C11.2936 3.15308 10.6939 3.79445 10.3417 4.5739C9.98954 5.35335 9.90454 6.22727 10.0999 7.05998C8.55633 6.98248 7.04628 6.58127 5.66778 5.8824C4.28928 5.18353 3.07313 4.20262 2.09826 3.00332C1.76493 3.57832 1.57326 4.24498 1.57326 4.95498C1.57289 5.59415 1.73029 6.22352 2.03149 6.78726C2.3327 7.351 2.7684 7.83168 3.29993 8.18665C2.68349 8.16703 2.08066 8.00047 1.5416 7.70082V7.75082C1.54153 8.64727 1.85162 9.51613 2.41925 10.21C2.98687 10.9038 3.77707 11.3799 4.65576 11.5575C4.08391 11.7122 3.48438 11.735 2.90243 11.6241C3.15034 12.3955 3.63326 13.07 4.28357 13.5533C4.93388 14.0365 5.71903 14.3043 6.5291 14.3191C5.15396 15.3987 3.45567 15.9842 1.70743 15.9816C1.39775 15.9817 1.08833 15.9636 0.780762 15.9275C2.55533 17.0685 4.62105 17.674 6.73076 17.6716C13.8724 17.6716 17.7766 11.7566 17.7766 6.62665C17.7766 6.45998 17.7724 6.29165 17.7649 6.12498C18.5243 5.57579 19.1799 4.89573 19.7008 4.11665L19.7024 4.11415V4.11415Z" fill="#A59AB2"/>
</svg>
