<svg width="20" height="14" viewBox="0 0 20 14" fill="none" xmlns="http://www.w3.org/2000/svg">
<path d="M19.5812 2.12671C19.468 1.72279 19.2474 1.3571 18.943 1.06852C18.6299 0.771061 18.2462 0.558283 17.8281 0.450268C16.2633 0.0378232 9.99417 0.0378233 9.99417 0.0378233C7.38063 0.00808779 4.76773 0.138872 2.17022 0.429437C1.7521 0.545433 1.36913 0.762965 1.05537 1.06269C0.74708 1.35931 0.523777 1.7251 0.407126 2.12588C0.126908 3.63546 -0.00924109 5.16825 0.00051425 6.70359C-0.0094844 8.23755 0.126331 9.76985 0.407126 11.2813C0.521277 11.6804 0.743748 12.0445 1.05287 12.3387C1.362 12.6328 1.74695 12.8453 2.17022 12.9578C3.75584 13.3694 9.99417 13.3694 9.99417 13.3694C12.611 13.3991 15.2273 13.2684 17.8281 12.9777C18.2462 12.8697 18.6299 12.657 18.943 12.3595C19.2513 12.0654 19.4704 11.6996 19.5804 11.3013C19.8679 9.79231 20.0077 8.25888 19.9978 6.72276C20.0194 5.18014 19.8798 3.63948 19.5812 2.12588V2.12671ZM8.0011 9.55654V3.85148L13.2171 6.70443L8.0011 9.55654Z" fill="#A59AB2"/>
</svg>
