<svg width="35" height="33" viewBox="0 0 35 33" fill="none" xmlns="http://www.w3.org/2000/svg">
<g clip-path="url(#clip0_304_2)">
<path d="M32.9583 1L19.8242 10.7183L22.2666 4.99099L32.9583 1Z" fill="#E17726" stroke="#E17726" stroke-width="0.25" stroke-linecap="round" stroke-linejoin="round"/>
<path d="M2.6626 1L15.6798 10.809L13.3544 4.99098L2.6626 1Z" fill="#E27625" stroke="#E27625" stroke-width="0.25" stroke-linecap="round" stroke-linejoin="round"/>
<path d="M28.229 23.5334L24.7344 28.872L32.2173 30.9323L34.3609 23.6501L28.229 23.5334Z" fill="#E27625" stroke="#E27625" stroke-width="0.25" stroke-linecap="round" stroke-linejoin="round"/>
<path d="M1.27295 23.6501L3.40349 30.9323L10.8734 28.872L7.39178 23.5334L1.27295 23.6501Z" fill="#E27625" stroke="#E27625" stroke-width="0.25" stroke-linecap="round" stroke-linejoin="round"/>
<path d="M10.4706 14.5149L8.39209 17.6507L15.797 17.9876L15.5502 10.0186L10.4706 14.5149Z" fill="#E27625" stroke="#E27625" stroke-width="0.25" stroke-linecap="round" stroke-linejoin="round"/>
<path d="M25.1505 14.515L19.9931 9.92798L19.8242 17.9877L27.2291 17.6508L25.1505 14.515Z" fill="#E27625" stroke="#E27625" stroke-width="0.25" stroke-linecap="round" stroke-linejoin="round"/>
<path d="M10.8735 28.872L15.3554 26.7081L11.4971 23.7019L10.8735 28.872Z" fill="#E27625" stroke="#E27625" stroke-width="0.25" stroke-linecap="round" stroke-linejoin="round"/>
<path d="M20.2661 26.7081L24.735 28.872L24.1244 23.7019L20.2661 26.7081Z" fill="#E27625" stroke="#E27625" stroke-width="0.25" stroke-linecap="round" stroke-linejoin="round"/>
<path d="M24.735 28.8722L20.2661 26.7083L20.6298 29.6108L20.5908 30.8418L24.735 28.8722Z" fill="#D5BFB2" stroke="#D5BFB2" stroke-width="0.25" stroke-linecap="round" stroke-linejoin="round"/>
<path d="M10.8735 28.8722L15.0307 30.8418L15.0047 29.6108L15.3554 26.7083L10.8735 28.8722Z" fill="#D5BFB2" stroke="#D5BFB2" stroke-width="0.25" stroke-linecap="round" stroke-linejoin="round"/>
<path d="M15.1081 21.7842L11.3926 20.6958L14.0168 19.4907L15.1081 21.7842Z" fill="#233447" stroke="#233447" stroke-width="0.25" stroke-linecap="round" stroke-linejoin="round"/>
<path d="M20.5127 21.7842L21.604 19.4907L24.2412 20.6958L20.5127 21.7842Z" fill="#233447" stroke="#233447" stroke-width="0.25" stroke-linecap="round" stroke-linejoin="round"/>
<path d="M10.8732 28.872L11.5228 23.5334L7.3916 23.6501L10.8732 28.872Z" fill="#CC6228" stroke="#CC6228" stroke-width="0.25" stroke-linecap="round" stroke-linejoin="round"/>
<path d="M24.0981 23.5334L24.7347 28.872L28.2293 23.6501L24.0981 23.5334Z" fill="#CC6228" stroke="#CC6228" stroke-width="0.25" stroke-linecap="round" stroke-linejoin="round"/>
<path d="M27.2291 17.6506L19.8242 17.9875L20.5127 21.7842L21.604 19.4906L24.2412 20.6957L27.2291 17.6506Z" fill="#CC6228" stroke="#CC6228" stroke-width="0.25" stroke-linecap="round" stroke-linejoin="round"/>
<path d="M11.393 20.6957L14.0172 19.4906L15.1085 21.7842L15.797 17.9875L8.39209 17.6506L11.393 20.6957Z" fill="#CC6228" stroke="#CC6228" stroke-width="0.25" stroke-linecap="round" stroke-linejoin="round"/>
<path d="M8.39209 17.6506L11.497 23.7019L11.393 20.6957L8.39209 17.6506Z" fill="#E27525" stroke="#E27525" stroke-width="0.25" stroke-linecap="round" stroke-linejoin="round"/>
<path d="M24.2414 20.6957L24.1245 23.7019L27.2294 17.6506L24.2414 20.6957Z" fill="#E27525" stroke="#E27525" stroke-width="0.25" stroke-linecap="round" stroke-linejoin="round"/>
<path d="M15.797 17.9875L15.1084 21.7843L15.9788 26.2675L16.1737 20.3589L15.797 17.9875Z" fill="#E27525" stroke="#E27525" stroke-width="0.25" stroke-linecap="round" stroke-linejoin="round"/>
<path d="M19.8242 17.9875L19.4604 20.3459L19.6423 26.2675L20.5127 21.7843L19.8242 17.9875Z" fill="#E27525" stroke="#E27525" stroke-width="0.25" stroke-linecap="round" stroke-linejoin="round"/>
<path d="M20.5125 21.7843L19.6421 26.2676L20.2657 26.7082L24.1241 23.702L24.241 20.6958L20.5125 21.7843Z" fill="#F5841F" stroke="#F5841F" stroke-width="0.25" stroke-linecap="round" stroke-linejoin="round"/>
<path d="M11.3926 20.6958L11.4966 23.702L15.3549 26.7082L15.9785 26.2676L15.1081 21.7843L11.3926 20.6958Z" fill="#F5841F" stroke="#F5841F" stroke-width="0.25" stroke-linecap="round" stroke-linejoin="round"/>
<path d="M20.5909 30.8417L20.6298 29.6107L20.2921 29.3256H15.3295L15.0047 29.6107L15.0307 30.8417L10.8735 28.8721L12.3285 30.0642L15.2775 32.0986H20.331L23.293 30.0642L24.735 28.8721L20.5909 30.8417Z" fill="#C0AC9D" stroke="#C0AC9D" stroke-width="0.25" stroke-linecap="round" stroke-linejoin="round"/>
<path d="M20.2658 26.7081L19.6422 26.2676H15.9787L15.3552 26.7081L15.0044 29.6107L15.3292 29.3256H20.2918L20.6296 29.6107L20.2658 26.7081Z" fill="#161616" stroke="#161616" stroke-width="0.25" stroke-linecap="round" stroke-linejoin="round"/>
<path d="M33.517 11.3532L34.6213 5.98873L32.9584 1L20.2661 10.3944L25.1507 14.5149L32.049 16.5234L33.569 14.7482L32.9065 14.2687L33.9587 13.3099L33.1533 12.6879L34.2056 11.8845L33.517 11.3532Z" fill="#763E1A" stroke="#763E1A" stroke-width="0.25" stroke-linecap="round" stroke-linejoin="round"/>
<path d="M1 5.98873L2.11724 11.3532L1.40273 11.8845L2.468 12.6879L1.66255 13.3099L2.71483 14.2687L2.05228 14.7482L3.57225 16.5234L10.4706 14.5149L15.3552 10.3944L2.66287 1L1 5.98873Z" fill="#763E1A" stroke="#763E1A" stroke-width="0.25" stroke-linecap="round" stroke-linejoin="round"/>
<path d="M32.0491 16.5233L25.1508 14.5149L27.2294 17.6507L24.1245 23.7019L28.2297 23.6501H34.3615L32.0491 16.5233Z" fill="#F5841F" stroke="#F5841F" stroke-width="0.25" stroke-linecap="round" stroke-linejoin="round"/>
<path d="M10.4706 14.5149L3.57238 16.5233L1.27295 23.6501H7.39178L11.4969 23.7019L8.3921 17.6507L10.4706 14.5149Z" fill="#F5841F" stroke="#F5841F" stroke-width="0.25" stroke-linecap="round" stroke-linejoin="round"/>
<path d="M19.8241 17.9876L20.2658 10.3943L22.2664 4.99097H13.3545L15.3551 10.3943L15.7968 17.9876L15.9657 20.3718L15.9787 26.2676H19.6422L19.6552 20.3718L19.8241 17.9876Z" fill="#F5841F" stroke="#F5841F" stroke-width="0.25" stroke-linecap="round" stroke-linejoin="round"/>
</g>
<defs>
<clipPath id="clip0_304_2">
<rect width="35" height="33" fill="white"/>
</clipPath>
</defs>
</svg>
